<svg width="683" height="683" viewBox="0 0 683 683" fill="none" xmlns="http://www.w3.org/2000/svg">
<path d="M519.733 279.884C504.933 283.884 494.667 291.484 488.933 302.417C486.133 308.017 485.467 311.084 485.467 319.217C485.467 338.95 496.133 348.817 524.267 355.484C546.4 360.684 549.867 361.884 551.467 364.817C556.933 375.084 524.267 375.484 503.2 365.35C499.6 363.617 496.4 362.55 496.133 363.084C495.867 363.484 492.8 370.15 489.467 377.884C482.4 393.75 482.133 393.084 494.667 397.75C511.6 404.15 539.333 406.55 555.6 403.084C578 398.284 592.533 382.684 592.667 363.35C592.667 342.95 581.2 333.217 549.067 326.417C530.8 322.55 526.8 320.95 526.267 316.95C525.2 309.217 545.467 307.084 562.667 313.35C567.867 315.084 572.8 316.817 573.867 316.95C575.067 317.084 577.733 312.417 581.467 303.884C584.533 296.55 587.2 289.884 587.2 289.084C587.333 286.817 576.267 282.417 564.4 280.017C551.867 277.35 529.2 277.35 519.733 279.884Z" fill="black"/>
<path d="M90 341.217V402.017L134.4 401.617C183.467 401.084 187.2 400.55 198.267 392.15C214.667 379.884 213.867 354.417 196.933 343.217C193.6 340.95 190.267 339.217 189.467 339.217C188.8 339.217 190.8 336.95 194 334.284C208.133 322.15 208.133 302.95 193.867 290.817C183.6 282.017 180 281.35 132.4 280.817L90 280.417V341.217ZM159.733 311.484C163.333 314.284 163.867 319.617 160.933 323.217C158.533 326.15 157.067 326.55 144.8 326.95L131.333 327.484V318.684V309.884H144.4C152.8 309.884 158.267 310.417 159.733 311.484ZM160.933 355.217C168.667 357.484 171.2 364.684 166 369.884C163.6 372.284 161.6 372.55 147.333 372.55H131.333V363.217V353.884H143.733C150.4 353.884 158.267 354.55 160.933 355.217Z" fill="black"/>
<path d="M224.667 341.217V401.884H245.333H266V387.217V372.55H278.4C301.733 372.417 317.2 367.084 328 354.95C336 346.017 338.533 338.017 337.733 323.35C337.333 314.95 336.4 310.417 334.133 306.15C330.4 298.95 322.4 290.817 315.467 287.217C304 281.484 296.8 280.55 259.733 280.55H224.667V341.217ZM290 314.55C294.667 316.95 296.667 320.284 296.667 325.75C296.667 336.017 292 339.484 277.067 340.284L266 340.95V326.684V312.55H276C282.4 312.55 287.6 313.35 290 314.55Z" fill="black"/>
<path d="M351.333 341.217V401.884H372H392.667V379.884V357.884H411.333H430V379.884V401.884H450.667H471.333V341.217V280.55H450.667H430V301.884V323.217H411.333H392.667V301.884V280.55H372H351.333V341.217Z" fill="black"/>
</svg>
